<svg width="24" height="24" viewBox="0 0 24 24" fill="none" xmlns="http://www.w3.org/2000/svg">
<path d="M10.6025 0V3.07875C9.99723 3.15494 9.40073 3.28932 8.82125 3.48C7.87064 3.79643 7.02325 4.36394 6.36875 5.1225L6.3275 5.17125C5.72977 5.90332 5.38742 6.81055 5.3525 7.755C5.28896 8.7917 5.60636 9.8159 6.245 10.635L6.29375 10.6987C6.8857 11.3994 7.64747 11.9365 8.50625 12.2587C9.36083 12.5754 10.2384 12.8261 11.1313 13.0087C11.7913 13.1512 12.215 13.2488 12.5938 13.3538H12.635C13.13 13.4738 13.5387 13.5825 13.9025 13.6875C14.3347 13.8159 14.7464 14.0053 15.125 14.25C15.3395 14.3859 15.5223 14.5662 15.6613 14.7787C15.7966 15.0388 15.8625 15.3295 15.8525 15.6225C15.8525 15.645 15.8525 15.6675 15.8525 15.69C15.8639 16.0504 15.7573 16.4046 15.5487 16.6987C15.2334 17.1144 14.8032 17.4286 14.3112 17.6025C13.5532 17.8922 12.7448 18.0273 11.9338 18H11.84C10.9606 18.0278 10.0869 17.8479 9.29 17.475C8.9001 17.2707 8.56456 16.9763 8.31125 16.6163L7.44125 15.3937L5 17.1375L5.86625 18.375C6.40448 19.1304 7.11549 19.7463 7.94 20.1712L7.98125 20.19C8.81133 20.5766 9.69723 20.8297 10.6062 20.94V24H13.6062V20.88C14.2125 20.7857 14.8071 20.6273 15.38 20.4075C16.4066 20.0286 17.3023 19.362 17.96 18.4875C18.4839 17.7325 18.7901 16.8479 18.845 15.9305C18.8999 15.0132 18.7014 14.0984 18.2712 13.2863L18.2488 13.2488C17.8728 12.6263 17.3598 12.0979 16.7487 11.7037C16.1389 11.3216 15.4788 11.0263 14.7875 10.8263C14.39 10.71 13.94 10.59 13.4038 10.4513C12.9763 10.335 12.5113 10.2262 11.795 10.0763C11.0448 9.92213 10.3076 9.71025 9.59 9.4425C9.22598 9.30631 8.90133 9.08215 8.645 8.79C8.4445 8.55133 8.34021 8.24647 8.3525 7.935C8.3525 7.88625 8.3525 7.8375 8.3525 7.78875C8.37659 7.52802 8.47703 7.28018 8.64125 7.07625C8.94206 6.72972 9.33068 6.47063 9.76625 6.32625C10.4789 6.08874 11.2278 5.97831 11.9787 6H12.0275C12.5961 5.99904 13.1622 6.07344 13.7113 6.22125C14.0864 6.32521 14.4405 6.494 14.7575 6.72C14.9559 6.85803 15.1264 7.03234 15.26 7.23375L16.0888 8.48625L18.59 6.82875L17.7612 5.57625C17.4214 5.06219 16.9875 4.6169 16.4825 4.26375C15.8853 3.84078 15.2191 3.52483 14.5138 3.33C14.2138 3.24743 13.9096 3.18109 13.6025 3.13125V0H10.6025Z" fill="#6EE7B7"/>
</svg>
