<svg width="24" height="24" viewBox="0 0 24 24" fill="none" xmlns="http://www.w3.org/2000/svg">
<path fill-rule="evenodd" clip-rule="evenodd" d="M12 1C5.95 1 1 5.95 1 12C1 18.05 5.95 23 12 23C18.05 23 23 18.05 23 12C23 5.95 18.05 1 12 1ZM12 20.9375C7.05 20.9375 3.0625 16.95 3.0625 12C3.0625 7.05 7.05 3.0625 12 3.0625C16.95 3.0625 20.9375 7.05 20.9375 12C20.9375 16.95 16.95 20.9375 12 20.9375ZM12 9.25C12.7594 9.25 13.375 8.63439 13.375 7.875C13.375 7.11561 12.7594 6.5 12 6.5C11.2406 6.5 10.625 7.11561 10.625 7.875C10.625 8.63439 11.2406 9.25 12 9.25ZM10.625 12C10.625 11.2437 11.2437 10.625 12 10.625C12.7563 10.625 13.375 11.2437 13.375 12V16.125C13.375 16.8813 12.7563 17.5 12 17.5C11.2437 17.5 10.625 16.8813 10.625 16.125V12Z" fill="#6EE7B7"/>
</svg>
