<svg width="37" height="64" viewBox="0 0 37 64" fill="none" xmlns="http://www.w3.org/2000/svg">
<path d="M14.94 0V8.21C13.326 8.41319 11.7353 8.77151 10.19 9.28C7.65505 10.1238 5.39534 11.6372 3.65 13.66L3.54 13.79C1.94605 15.7422 1.03312 18.1615 0.940001 20.68C0.770561 23.4445 1.61695 26.1757 3.32 28.36L3.45 28.53C5.02852 30.3984 7.05992 31.8307 9.35 32.69C11.6289 33.5343 13.969 34.203 16.35 34.69C18.11 35.07 19.24 35.33 20.25 35.61H20.36C21.68 35.93 22.77 36.22 23.74 36.5C24.8925 36.8423 25.9903 37.3474 27 38C27.5719 38.3625 28.0595 38.8433 28.43 39.41C28.7909 40.1036 28.9666 40.8786 28.94 41.66C28.94 41.72 28.94 41.78 28.94 41.84C28.9705 42.801 28.686 43.7456 28.13 44.53C27.2891 45.6385 26.1418 46.4764 24.83 46.94C22.8085 47.7125 20.6529 48.0729 18.49 48H18.24C15.8948 48.0742 13.5652 47.5945 11.44 46.6C10.4003 46.0551 9.50549 45.27 8.83 44.31L6.51 41.05L0 45.7L2.31 49C3.74529 51.0145 5.6413 52.6568 7.84 53.79L7.95 53.84C10.1635 54.8709 12.526 55.5459 14.95 55.84V64H22.95V55.68C24.5668 55.4284 26.1523 55.006 27.68 54.42C30.4175 53.4096 32.8061 51.6321 34.56 49.3C35.9572 47.2866 36.7736 44.9277 36.92 42.4814C37.0664 40.0351 36.5371 37.5957 35.39 35.43L35.33 35.33C34.3276 33.6702 32.9595 32.261 31.33 31.21C29.7038 30.191 27.9435 29.4034 26.1 28.87C25.04 28.56 23.84 28.24 22.41 27.87C21.27 27.56 20.03 27.27 18.12 26.87C16.1194 26.459 14.1535 25.894 12.24 25.18C11.2693 24.8168 10.4035 24.2191 9.72 23.44C9.18535 22.8035 8.90723 21.9906 8.94 21.16C8.94 21.03 8.94 20.9 8.94 20.77C9.00423 20.0747 9.27207 19.4138 9.71 18.87C10.5122 17.9459 11.5485 17.255 12.71 16.87C14.6105 16.2366 16.6076 15.9422 18.61 16H18.74C20.2562 15.9974 21.766 16.1958 23.23 16.59C24.2305 16.8672 25.1747 17.3173 26.02 17.92C26.5491 18.2881 27.0037 18.7529 27.36 19.29L29.57 22.63L36.24 18.21L34.03 14.87C33.1237 13.4992 31.9667 12.3117 30.62 11.37C29.0275 10.2421 27.2511 9.39953 25.37 8.88C24.5701 8.65982 23.7589 8.4829 22.94 8.35V0H14.94Z" fill="black"/>
</svg>
