<svg width="24" height="24" viewBox="0 0 24 24" fill="none" xmlns="http://www.w3.org/2000/svg">
<path d="M20.3782 2.00025C19.5353 1.98693 18.521 2.50607 17.6755 3.35159C16.2914 4.59725 14.9318 5.99387 13.6215 7.40561L2.81078 5.24348L2 6.86506L10.108 10.9191L5.51347 16.3244C4.45991 15.9779 2.81081 15.5836 2.81081 16.865C2.81079 17.1182 2.87416 17.3791 3.08107 17.6758L6.32424 20.9189C6.62092 21.1258 6.88182 21.1892 7.13504 21.1892C8.41638 21.1892 8.0221 19.5401 7.67558 18.4865L13.0809 13.892L17.1349 22L18.7565 21.1892L16.5944 10.3785C18.0061 9.06825 19.4028 7.70856 20.6484 6.32449C21.4939 5.47897 22.0131 4.46473 21.9997 3.62182C21.9926 3.16773 21.8493 2.73537 21.5586 2.4414C21.2646 2.15066 20.8323 2.00744 20.3782 2.00025V2.00025Z" fill="#6EE7B7"/>
</svg>
