<svg width="342" height="63" viewBox="0 0 342 63" fill="none" xmlns="http://www.w3.org/2000/svg">
<path d="M110.6 50H103.8V25.15L93.6 50H87.85L77.65 25.35V50H71.05V14.55H80.15L90.8 40.15L101.2 14.55H110.6V50ZM122.66 42.85C123.893 44.0833 125.376 44.7 127.11 44.7C128.843 44.7 130.31 44.0833 131.51 42.85C132.743 41.6167 133.36 39.9 133.36 37.7C133.36 35.5 132.743 33.7833 131.51 32.55C130.31 31.3167 128.843 30.7 127.11 30.7C125.376 30.7 123.893 31.3167 122.66 32.55C121.46 33.7833 120.86 35.5 120.86 37.7C120.86 39.9 121.46 41.6167 122.66 42.85ZM117.86 28.35C120.326 25.8833 123.41 24.65 127.11 24.65C130.81 24.65 133.876 25.8833 136.31 28.35C138.776 30.8167 140.01 33.9333 140.01 37.7C140.01 41.4667 138.776 44.5833 136.31 47.05C133.876 49.5167 130.81 50.75 127.11 50.75C123.41 50.75 120.326 49.5167 117.86 47.05C115.426 44.5833 114.21 41.4667 114.21 37.7C114.21 33.9333 115.426 30.8167 117.86 28.35ZM165.727 25.4L156.177 50H149.527L139.477 25.4H146.777L152.877 41.9L158.727 25.4H165.727ZM171.89 34.9H182.89C182.824 33.5333 182.324 32.3833 181.39 31.45C180.49 30.5167 179.157 30.05 177.39 30.05C175.79 30.05 174.49 30.55 173.49 31.55C172.49 32.55 171.957 33.6667 171.89 34.9ZM183.54 41.3L189.09 42.95C188.424 45.2167 187.107 47.0833 185.14 48.55C183.207 50.0167 180.79 50.75 177.89 50.75C174.357 50.75 171.357 49.5667 168.89 47.2C166.424 44.8 165.19 41.6 165.19 37.6C165.19 33.8 166.39 30.7 168.79 28.3C171.19 25.8667 174.024 24.65 177.29 24.65C181.09 24.65 184.057 25.7833 186.19 28.05C188.357 30.3167 189.44 33.4333 189.44 37.4C189.44 37.6667 189.424 37.9667 189.39 38.3C189.39 38.6333 189.39 38.9 189.39 39.1L189.34 39.45H171.74C171.807 41.05 172.44 42.3833 173.64 43.45C174.84 44.5167 176.274 45.05 177.94 45.05C180.774 45.05 182.64 43.8 183.54 41.3ZM223.427 50H216.177L200.077 24.85V50H193.177V14.55H201.777L216.527 38V14.55H223.427V50ZM227.409 43.3C227.409 41.2 228.093 39.5167 229.459 38.25C230.826 36.9833 232.593 36.1833 234.759 35.85L240.809 34.95C242.043 34.7833 242.659 34.2 242.659 33.2C242.659 32.2667 242.293 31.5 241.559 30.9C240.859 30.3 239.843 30 238.509 30C237.109 30 235.993 30.3833 235.159 31.15C234.359 31.9167 233.909 32.8667 233.809 34L227.909 32.75C228.143 30.6167 229.193 28.7333 231.059 27.1C232.926 25.4667 235.393 24.65 238.459 24.65C242.126 24.65 244.826 25.5333 246.559 27.3C248.293 29.0333 249.159 31.2667 249.159 34V46.1C249.159 47.5667 249.259 48.8667 249.459 50H243.359C243.193 49.2667 243.109 48.2833 243.109 47.05C241.543 49.4833 239.126 50.7 235.859 50.7C233.326 50.7 231.276 49.9667 229.709 48.5C228.176 47.0333 227.409 45.3 227.409 43.3ZM237.259 45.75C238.826 45.75 240.109 45.3167 241.109 44.45C242.143 43.55 242.659 42.0833 242.659 40.05V38.95L237.109 39.8C235.076 40.1 234.059 41.1333 234.059 42.9C234.059 43.7 234.343 44.3833 234.909 44.95C235.476 45.4833 236.259 45.75 237.259 45.75ZM261.916 18.05V25.4H266.866V31.3H261.916V41.6C261.916 42.6333 262.149 43.3667 262.616 43.8C263.083 44.2333 263.816 44.45 264.816 44.45C265.716 44.45 266.399 44.3833 266.866 44.25V49.75C265.899 50.15 264.649 50.35 263.116 50.35C260.716 50.35 258.816 49.6833 257.416 48.35C256.016 46.9833 255.316 45.1167 255.316 42.75V31.3H250.866V25.4H252.116C253.349 25.4 254.283 25.05 254.916 24.35C255.583 23.6167 255.916 22.6667 255.916 21.5V18.05H261.916ZM277.165 50H270.515V25.4H277.165V50ZM269.715 17.35C269.715 16.2167 270.115 15.25 270.915 14.45C271.715 13.6167 272.682 13.2 273.815 13.2C274.948 13.2 275.915 13.6 276.715 14.4C277.515 15.2 277.915 16.1833 277.915 17.35C277.915 18.45 277.515 19.4 276.715 20.2C275.915 21 274.948 21.4 273.815 21.4C272.682 21.4 271.715 21 270.915 20.2C270.115 19.4 269.715 18.45 269.715 17.35ZM288.884 42.85C290.118 44.0833 291.601 44.7 293.334 44.7C295.068 44.7 296.534 44.0833 297.734 42.85C298.968 41.6167 299.584 39.9 299.584 37.7C299.584 35.5 298.968 33.7833 297.734 32.55C296.534 31.3167 295.068 30.7 293.334 30.7C291.601 30.7 290.118 31.3167 288.884 32.55C287.684 33.7833 287.084 35.5 287.084 37.7C287.084 39.9 287.684 41.6167 288.884 42.85ZM284.084 28.35C286.551 25.8833 289.634 24.65 293.334 24.65C297.034 24.65 300.101 25.8833 302.534 28.35C305.001 30.8167 306.234 33.9333 306.234 37.7C306.234 41.4667 305.001 44.5833 302.534 47.05C300.101 49.5167 297.034 50.75 293.334 50.75C289.634 50.75 286.551 49.5167 284.084 47.05C281.651 44.5833 280.434 41.4667 280.434 37.7C280.434 33.9333 281.651 30.8167 284.084 28.35ZM316.134 35.85V50H309.484V25.4H315.934V28.45C316.634 27.25 317.634 26.3333 318.934 25.7C320.234 25.0667 321.6 24.75 323.034 24.75C325.934 24.75 328.134 25.6667 329.634 27.5C331.167 29.3 331.934 31.6333 331.934 34.5V50H325.284V35.65C325.284 34.1833 324.9 33 324.134 32.1C323.4 31.2 322.267 30.75 320.734 30.75C319.334 30.75 318.217 31.2333 317.384 32.2C316.55 33.1667 316.134 34.3833 316.134 35.85Z" fill="black"/>
<path fill-rule="evenodd" clip-rule="evenodd" d="M14.8828 23.4101C18.9444 20.7024 24.225 19 31 19C37.775 19 43.0556 20.7024 47.1172 23.4101C51.1601 26.1053 53.8178 29.6775 55.5583 33.1584C56.2302 34.5023 56.7698 35.8408 57.2033 37.124L59.5312 31.3622L63.7036 33.0479L58.4058 46.1603L57.2737 48.9624L54.9139 47.0742L43.8943 38.2568L46.7057 34.7431L51.2989 38.4184C50.9887 37.57 50.6229 36.7041 50.1917 35.8416C48.8072 33.0725 46.7774 30.3947 43.789 28.4024C40.8194 26.4226 36.725 25 31 25C25.275 25 21.1806 26.4226 18.211 28.4024C15.2226 30.3947 13.1928 33.0725 11.8083 35.8416C10.4179 38.6225 9.70768 41.4397 9.34981 43.5869C9.17205 44.6535 9.08433 45.5357 9.0412 46.1395C9.01967 46.4409 9.00936 46.6715 9.00444 46.8192C9.00198 46.893 9.00087 46.946 9.00037 46.9767L9 47.0057L8.99999 47.0047L9 47.0026C9 47.0014 9 47 6 47C3 47 3 46.9984 3 46.9968L3.00001 46.993L3.00003 46.9836L3.00019 46.9581C3.00035 46.938 3.00064 46.9119 3.00115 46.8799C3.00218 46.816 3.00412 46.7286 3.00777 46.6193C3.01505 46.4008 3.02915 46.0942 3.05645 45.712C3.11098 44.9487 3.21857 43.8778 3.43144 42.6006C3.85481 40.0603 4.70715 36.6275 6.44172 33.1584C8.18216 29.6775 10.8399 26.1053 14.8828 23.4101Z" fill="black"/>
</svg>
